<?xml version="1.0" standalone="no"?>
<!DOCTYPE svg PUBLIC "-//W3C//DTD SVG 20010904//EN"
 "http://www.w3.org/TR/2001/REC-SVG-20010904/DTD/svg10.dtd">
<svg version="1.0" xmlns="http://www.w3.org/2000/svg"
 width="500.000000pt" height="166,680000pt" viewBox="0 0 500.000000 166.680000"
 preserveAspectRatio="xMidYMid meet">

<g transform="translate(0.000000,200.000000) scale(0.100000,-0.100000)"
fill="#000000" stroke="none">
<path d="M5555 1555 c-185 -12 -516 -27 -563 -26 -13 1 -32 -4 -43 -9 -10 -6
-19 -7 -19 -3 0 10 -240 -2 -358 -17 -45 -6 -87 -8 -92 -5 -5 3 -20 0 -32 -6
-28 -15 -68 -20 -68 -9 0 4 -6 10 -12 13 -23 8 -210 -12 -226 -25 -13 -11 -14
-11 -8 0 6 11 -16 12 -121 7 -212 -11 -317 -22 -321 -34 -5 -16 -42 -35 -42
-21 0 5 6 10 13 10 8 0 14 6 14 13 0 9 -21 10 -91 5 -50 -4 -138 -10 -196 -13
-58 -3 -140 -10 -183 -15 -42 -6 -82 -8 -87 -5 -5 3 -23 -1 -40 -10 -17 -9
-35 -13 -40 -10 -5 3 -14 -3 -20 -14 -8 -16 -7 -22 9 -31 28 -14 38 -12 17 3
-15 11 -16 15 -5 19 8 3 20 -1 27 -8 7 -8 9 -14 5 -15 -4 0 5 -5 22 -10 18 -5
31 -5 35 2 4 5 14 7 23 3 10 -3 17 -1 17 5 0 6 5 11 11 11 5 0 7 -5 3 -11 -5
-8 8 -9 42 -5 27 4 88 8 137 9 90 1 96 5 88 50 -1 5 3 6 8 3 5 -3 7 -15 4 -27
-6 -20 -3 -21 68 -15 41 3 117 8 169 11 52 4 120 8 150 10 134 10 408 24 442
22 20 -1 34 1 32 5 -3 4 8 5 24 2 17 -3 32 -1 36 5 4 5 14 7 24 4 14 -5 14 -3
-2 9 -15 12 -16 16 -5 20 8 3 20 -1 27 -8 7 -8 9 -14 5 -15 -4 0 5 -5 22 -10
18 -5 31 -5 35 2 4 5 14 7 23 3 10 -3 17 -1 17 5 0 6 5 11 11 11 5 0 7 -5 3
-11 -5 -8 8 -9 42 -5 27 4 88 8 137 9 48 1 87 4 87 7 0 3 25 4 55 3 31 -1 53
1 51 5 -2 4 78 8 178 9 99 1 219 6 266 9 47 4 100 6 119 5 18 -2 31 1 28 6 -3
4 60 8 139 9 79 0 147 3 150 6 3 3 2 22 -1 42 -6 29 -12 36 -29 35 -11 -1
-106 -7 -211 -14z m20 -35 c3 -6 -1 -7 -9 -4 -18 7 -21 14 -7 14 6 0 13 -4 16
-10z m-445 -30 c0 -5 -5 -10 -11 -10 -5 0 -7 5 -4 10 3 6 8 10 11 10 2 0 4 -4
4 -10z m-640 -31 c0 -5 -5 -9 -11 -9 -5 0 -7 5 -3 12 5 7 2 9 -9 5 -11 -4 -14
-2 -10 9 4 11 9 12 19 3 8 -6 14 -15 14 -20z m690 21 c0 -5 -5 -10 -11 -10 -5
0 -7 5 -4 10 3 6 8 10 11 10 2 0 4 -4 4 -10z m-583 -16 c-3 -3 -12 -4 -19 -1
-8 3 -5 6 6 6 11 1 17 -2 13 -5z m-1117 -44 c0 -5 -2 -10 -4 -10 -3 0 -8 5
-11 10 -3 6 -1 10 4 10 6 0 11 -4 11 -10z m160 6 c0 -3 -4 -8 -10 -11 -5 -3
-10 -1 -10 4 0 6 5 11 10 11 6 0 10 -2 10 -4z m101 -19 c-10 -9 -11 -8 -5 6 3
10 9 15 12 12 3 -3 0 -11 -7 -18z m-611 -28 c0 -5 -5 -9 -11 -9 -5 0 -7 5 -3
12 5 7 2 9 -9 5 -11 -4 -14 -2 -10 9 4 11 9 12 19 3 8 -6 14 -15 14 -20z m107
5 c-3 -3 -12 -4 -19 -1 -8 3 -5 6 6 6 11 1 17 -2 13 -5z"/>
<path d="M5436 1423 c5 -14 4 -15 -4 -4 -25 35 -112 -25 -148 -104 -41 -88
-29 -227 26 -305 33 -46 106 -81 180 -86 67 -5 118 10 112 34 -1 8 12 12 36
12 30 0 43 6 59 28 50 67 68 202 39 285 -39 107 -112 157 -233 157 -64 0 -72
-2 -67 -17z m61 -9 c-3 -3 -12 -4 -19 -1 -8 3 -5 6 6 6 11 1 17 -2 13 -5z m94
-93 c21 -21 40 -36 42 -34 2 2 7 -35 11 -83 5 -57 4 -90 -3 -97 -6 -6 -11 -17
-11 -24 0 -25 -73 -83 -104 -83 -7 0 -36 7 -64 15 -44 13 -55 22 -73 56 -40
79 -35 184 12 244 27 33 52 44 108 44 37 1 49 -4 82 -38z m84 -11 c-3 -5 -10
-10 -16 -10 -5 0 -9 5 -9 10 0 6 7 10 16 10 8 0 12 -4 9 -10z m-305 -224 c0
-2 -7 -7 -16 -10 -8 -3 -12 -2 -9 4 6 10 25 14 25 6z"/>
<path d="M4970 1409 c0 -7 -3 -9 -7 -6 -3 4 -12 2 -20 -5 -10 -8 -17 -8 -25 0
-15 15 -93 16 -119 2 -21 -12 -26 -55 -7 -66 6 -4 40 -7 74 -6 35 1 65 -2 68
-6 6 -10 28 -282 27 -337 0 -46 5 -57 36 -74 18 -9 26 -7 46 11 25 23 25 23
17 148 -5 69 -10 154 -12 190 l-4 65 40 19 c28 14 41 16 44 8 6 -19 47 -14 68
9 14 15 16 24 8 37 -9 14 -31 17 -123 20 -81 2 -111 -1 -111 -9z m70 -19 c-6
-11 -15 -18 -21 -14 -6 4 -6 11 2 20 17 21 31 17 19 -6z m-33 -86 c-3 -3 -12
-4 -19 -1 -8 3 -5 6 6 6 11 1 17 -2 13 -5z m-2 -34 c3 -5 -1 -10 -9 -10 -9 0
-16 5 -16 10 0 6 4 10 9 10 6 0 13 -4 16 -10z m25 -76 c0 -2 -9 0 -20 6 -11 6
-20 13 -20 16 0 2 9 0 20 -6 11 -6 20 -13 20 -16z m-30 -114 c0 -5 -2 -10 -4
-10 -3 0 -8 5 -11 10 -3 6 -1 10 4 10 6 0 11 -4 11 -10z m7 -56 c-3 -3 -12 -4
-19 -1 -8 3 -5 6 6 6 11 1 17 -2 13 -5z"/>
<path d="M2590 1389 c-173 -10 -391 -20 -485 -23 -189 -7 -243 -13 -264 -30
-12 -8 -13 -8 -7 2 6 11 -16 12 -121 7 -70 -3 -164 -10 -209 -16 -44 -5 -105
-10 -135 -10 -30 -1 -62 -6 -71 -11 -10 -5 -18 -5 -18 -1 0 8 -330 -9 -755
-38 -228 -15 -252 -17 -307 -18 -41 -1 -46 -3 -41 -21 3 -11 9 -17 14 -14 5 3
9 1 9 -4 0 -6 -8 -13 -17 -16 -10 -4 -13 -10 -7 -15 9 -9 307 3 351 14 11 3
79 7 150 9 70 3 207 9 303 15 96 6 201 11 232 12 32 1 56 5 54 8 -2 3 76 8
173 9 97 2 180 7 186 10 12 8 38 9 270 16 99 3 259 10 355 16 96 6 249 14 339
19 134 7 166 12 173 25 11 20 28 21 28 1 0 -10 10 -15 33 -15 43 0 78 10 72
20 -3 5 -1 11 5 15 5 3 10 -2 10 -12 0 -14 7 -18 32 -16 18 1 44 2 57 2 17 1
21 4 14 14 -12 16 -14 59 -2 52 5 -4 9 -1 9 4 0 14 -39 13 -430 -10z m113 -16
c-7 -2 -19 -2 -25 0 -7 3 -2 5 12 5 14 0 19 -2 13 -5z m154 -29 c-3 -3 -12 -4
-19 -1 -8 3 -5 6 6 6 11 1 17 -2 13 -5z m-1377 -64 c0 -5 -5 -10 -11 -10 -5 0
-7 5 -4 10 3 6 8 10 11 10 2 0 4 -4 4 -10z m-1140 -45 c0 -8 -7 -15 -15 -15
-26 0 -18 20 13 29 1 1 2 -6 2 -14z m145 -6 c12 -19 -5 -23 -22 -6 -16 16 -16
17 -1 17 9 0 20 -5 23 -11z"/>
<path d="M4595 1381 c3 -6 4 -11 1 -11 -2 0 -13 -3 -23 -6 -15 -5 -15 -4 -3 5
11 8 -6 10 -65 10 -44 0 -92 -2 -108 -5 -33 -7 -54 -39 -37 -59 8 -9 8 -14 0
-17 -8 -2 -9 -30 -4 -91 6 -75 9 -87 23 -83 13 5 12 3 -2 -8 -13 -10 -16 -21
-11 -40 5 -21 12 -26 35 -26 17 0 32 6 35 15 4 8 10 13 14 10 5 -3 13 2 17 10
7 12 34 17 118 21 112 5 135 13 135 45 0 34 -54 48 -128 33 -22 -5 -29 -11
-25 -23 4 -13 3 -13 -5 -2 -11 16 -93 26 -101 12 -4 -5 -6 21 -6 59 l0 69 70
5 c39 2 93 5 121 5 53 0 99 26 74 41 -6 4 -10 13 -8 21 2 11 -12 15 -60 17
-43 2 -62 0 -57 -7z m-208 -57 c-3 -3 -12 -4 -19 -1 -8 3 -5 6 6 6 11 1 17 -2
13 -5z m43 -168 c0 -9 -9 -14 -21 -13 -19 1 -19 2 -3 14 22 16 24 16 24 -1z
m28 -18 c-2 -7 3 -12 10 -10 18 3 15 -6 -6 -17 -16 -8 -18 -6 -16 12 3 27 3
27 9 27 3 0 4 -6 3 -12z m194 -20 c-7 -7 -12 -8 -12 -2 0 14 12 26 19 19 2 -3
-1 -11 -7 -17z"/>
<path d="M3937 1358 c-36 -13 -41 -39 -33 -172 4 -61 7 -128 7 -148 -1 -20 3
-39 9 -43 8 -5 8 -11 0 -20 -8 -10 -7 -16 7 -24 10 -6 12 -11 6 -11 -16 0 -17
-44 -3 -71 14 -25 42 -24 71 1 23 19 23 21 6 31 -17 10 -17 12 -2 35 11 17 15
42 13 82 -3 53 -1 57 20 60 27 4 112 -35 112 -51 1 -20 47 -70 58 -63 6 4 8
-2 5 -15 -8 -28 45 -84 64 -68 9 8 13 8 13 0 0 -7 7 -7 25 1 26 12 33 32 15
43 -6 4 -8 11 -5 16 4 5 -1 9 -10 9 -11 0 -15 5 -12 14 7 16 -35 75 -75 106
-26 20 -41 49 -19 35 5 -3 16 4 24 15 7 11 17 17 20 14 10 -10 47 39 42 54 -3
7 0 10 5 7 18 -11 11 79 -9 111 -31 51 -73 64 -208 63 -65 0 -130 -5 -146 -11z
m260 -34 c-3 -3 -12 -4 -19 -1 -8 3 -5 6 6 6 11 1 17 -2 13 -5z m47 -36 c-6
-9 -34 1 -34 12 0 5 6 10 13 13 13 4 28 -13 21 -25z m-77 0 c-9 -6 -8 -8 1 -8
7 0 20 -7 28 -15 18 -18 9 -84 -12 -92 -8 -3 -12 -8 -9 -12 2 -4 -34 -8 -79
-10 -95 -2 -94 -3 -92 79 1 48 4 55 25 60 35 8 151 6 138 -2z m-210 -40 c-3
-8 -6 -5 -6 6 -1 11 2 17 5 13 3 -3 4 -12 1 -19z m-30 -18 c-4 -15 1 -22 19
-26 14 -4 23 -8 21 -11 -3 -2 -16 -1 -30 2 -18 5 -24 13 -24 31 0 13 4 24 9
24 6 0 8 -9 5 -20z m23 -64 c0 -3 -4 -8 -10 -11 -5 -3 -10 -1 -10 4 0 6 5 11
10 11 6 0 10 -2 10 -4z m180 -56 c0 -11 -2 -20 -4 -20 -2 0 -6 9 -9 20 -3 11
-1 20 4 20 5 0 9 -9 9 -20z m55 10 c3 -5 -3 -10 -15 -10 -12 0 -18 5 -15 10 3
6 10 10 15 10 5 0 12 -4 15 -10z"/>
<path d="M3581 1329 c-14 -5 -44 -25 -67 -44 -91 -75 -106 -250 -32 -373 32
-52 100 -86 172 -86 34 0 73 3 88 6 34 7 83 45 66 51 -7 2 3 11 23 19 58 25
75 122 24 142 -10 4 -15 -1 -15 -14 0 -11 -7 -25 -16 -32 -8 -7 -34 -30 -56
-50 -23 -22 -52 -39 -67 -40 -59 -4 -67 -5 -84 -12 -10 -5 -21 -6 -24 -2 -4 3
1 6 10 6 10 0 17 3 17 8 0 7 -34 31 -47 33 -10 2 -35 78 -34 104 0 10 -4 24
-8 30 -5 6 0 38 11 75 23 76 63 117 110 114 45 -3 148 -37 142 -46 -3 -5 -13
-3 -22 4 -12 9 -10 3 5 -22 24 -39 57 -49 87 -27 19 14 19 15 -2 60 -12 25
-38 58 -58 74 -33 25 -47 28 -118 30 -45 2 -92 -2 -105 -8z m259 -100 c0 -5
-4 -9 -10 -9 -5 0 -10 7 -10 16 0 8 5 12 10 9 6 -3 10 -10 10 -16z m-325 -9
c3 -5 2 -10 -4 -10 -5 0 -13 5 -16 10 -3 6 -2 10 4 10 5 0 13 -4 16 -10z m342
-16 c-3 -3 -12 -4 -19 -1 -8 3 -5 6 6 6 11 1 17 -2 13 -5z m-377 -34 c0 -5 -7
-10 -16 -10 -8 0 -12 5 -9 10 3 6 10 10 16 10 5 0 9 -4 9 -10z m20 -20 c0 -5
-9 -14 -20 -20 -22 -12 -27 -1 -8 18 14 14 28 16 28 2z m-3 -76 c-3 -3 -12 -4
-19 -1 -8 3 -5 6 6 6 11 1 17 -2 13 -5z m9 -80 c14 -12 15 -14 3 -11 -9 3 -21
1 -26 -4 -5 -5 -9 -1 -10 11 -2 24 7 25 33 4z m3 -55 c-15 -9 -32 -2 -24 11 3
5 13 6 21 3 12 -4 13 -8 3 -14z m349 -14 c2 -1 -4 -5 -13 -9 -9 -3 -13 -2 -10
4 4 6 -8 10 -27 11 -27 0 -29 2 -13 8 16 7 46 0 63 -14z m-281 -27 c-3 -8 -6
-5 -6 6 -1 11 2 17 5 13 3 -3 4 -12 1 -19z m198 2 c-3 -5 -13 -10 -21 -10 -8
0 -12 5 -9 10 3 6 13 10 21 10 8 0 12 -4 9 -10z m-75 -35 c0 -12 -19 -12 -23
0 -4 9 -1 12 9 8 7 -3 14 -7 14 -8z"/>
<path d="M3235 1301 c3 -6 4 -11 1 -11 -2 0 -13 -3 -23 -6 -15 -5 -15 -4 -3 5
11 8 -6 10 -65 10 -44 0 -92 -2 -108 -5 -33 -7 -54 -39 -37 -59 8 -9 8 -14 0
-17 -8 -2 -9 -30 -4 -91 6 -75 9 -87 23 -83 13 5 12 3 -2 -8 -13 -10 -16 -21
-11 -40 5 -21 12 -26 35 -26 17 0 32 6 35 15 4 8 10 13 14 10 5 -3 13 2 17 10
7 12 34 17 118 21 112 5 135 13 135 45 0 34 -54 48 -128 33 -22 -5 -29 -11
-25 -23 4 -13 3 -13 -5 -2 -11 16 -93 26 -101 12 -4 -5 -6 21 -6 59 l0 69 70
5 c39 2 93 5 121 5 53 0 99 26 74 41 -6 4 -10 13 -8 21 2 11 -12 15 -60 17
-43 2 -62 0 -57 -7z m-208 -57 c-3 -3 -12 -4 -19 -1 -8 3 -5 6 6 6 11 1 17 -2
13 -5z m43 -168 c0 -9 -9 -14 -21 -13 -19 1 -19 2 -3 14 22 16 24 16 24 -1z
m28 -18 c-2 -7 3 -12 10 -10 18 3 15 -6 -6 -17 -16 -8 -18 -6 -16 12 3 27 3
27 9 27 3 0 4 -6 3 -12z m194 -20 c-7 -7 -12 -8 -12 -2 0 14 12 26 19 19 2 -3
-1 -11 -7 -17z"/>
<path d="M2677 1280 c-82 -26 -127 -96 -107 -169 12 -47 46 -77 104 -92 146
-38 177 -51 189 -76 17 -38 -8 -75 -62 -92 -55 -17 -85 -4 -133 58 -40 54 -48
57 -79 32 -23 -19 -24 -20 -9 -62 9 -25 30 -54 52 -72 31 -25 48 -30 105 -34
83 -6 127 8 118 37 -5 17 -2 20 21 20 22 0 25 -2 14 -15 -25 -30 7 -14 41 21
31 32 34 40 33 93 -1 32 -7 68 -13 79 -19 36 -118 78 -199 84 -19 1 -36 6 -38
10 -3 4 -18 8 -33 8 -20 0 -27 5 -26 18 3 37 37 109 58 121 22 14 22 14 3 -8
l-19 -21 34 0 c19 0 53 -9 74 -21 26 -13 51 -18 72 -15 25 4 31 1 26 -10 -3
-8 -11 -13 -18 -10 -8 3 -16 -1 -19 -9 -7 -19 31 -30 49 -15 34 28 4 100 -53
129 -30 16 -149 23 -185 11z m109 -8 c8 -5 7 -11 -4 -22 -14 -13 -15 -12 -9 2
4 11 0 18 -11 21 -13 4 -13 5 -2 6 8 0 20 -3 26 -7z m-126 -26 c0 -3 -4 -8
-10 -11 -5 -3 -10 -1 -10 4 0 6 5 11 10 11 6 0 10 -2 10 -4z m228 -18 c-3 -7
-21 -14 -41 -16 -28 -2 -37 1 -37 12 0 12 11 16 41 16 28 0 39 -4 37 -12z
m-188 -147 c0 -12 -39 -21 -58 -13 -12 5 -7 9 18 13 19 4 36 7 38 8 1 0 2 -3
2 -8z m50 -6 c10 -12 10 -15 -4 -15 -9 0 -16 7 -16 15 0 8 2 15 4 15 2 0 9 -7
16 -15z m27 -31 c-3 -3 -12 -4 -19 -1 -8 3 -5 6 6 6 11 1 17 -2 13 -5z m92 3
c-2 -1 -15 -11 -28 -22 l-24 -20 14 23 c8 12 20 22 28 22 8 0 12 -1 10 -3z
m-112 -23 c-3 -3 -12 -4 -19 -1 -8 3 -5 6 6 6 11 1 17 -2 13 -5z m113 -4 c0
-5 -4 -10 -10 -10 -5 0 -10 5 -10 10 0 6 5 10 10 10 6 0 10 -4 10 -10z"/>
<path d="M2233 1236 c-15 -13 -28 -34 -29 -47 -1 -13 -6 -35 -11 -49 -6 -14
-36 -100 -67 -192 -62 -180 -63 -201 -11 -214 35 -9 51 9 69 71 9 29 23 56 32
59 9 3 55 6 103 6 l88 0 18 -39 c10 -22 28 -50 41 -62 20 -19 28 -21 48 -11
18 8 24 18 22 39 -3 42 -17 84 -26 78 -4 -3 -7 1 -6 8 2 21 -138 328 -161 353
-29 31 -73 31 -110 0z m71 -118 c24 -53 66 -161 63 -164 -1 -1 -32 -4 -69 -6
-76 -4 -76 -5 -53 63 8 24 16 55 19 69 5 31 17 70 22 70 2 0 10 -15 18 -32z"/>
<path d="M1637 1228 c-36 -13 -41 -39 -33 -172 4 -61 7 -128 7 -148 -1 -20 3
-39 9 -43 8 -5 8 -11 0 -20 -8 -10 -7 -16 7 -24 10 -6 12 -11 6 -11 -16 0 -17
-44 -3 -71 14 -25 42 -24 71 1 23 19 23 21 6 31 -17 10 -17 12 -2 35 11 17 15
42 13 82 -3 53 -1 57 20 60 27 4 112 -35 112 -51 1 -20 47 -70 58 -63 6 4 8
-2 5 -15 -8 -28 45 -84 64 -68 9 8 13 8 13 0 0 -7 7 -7 25 1 26 12 33 32 15
43 -6 4 -8 11 -5 16 4 5 -1 9 -10 9 -11 0 -15 5 -12 14 7 16 -35 75 -75 106
-26 20 -41 49 -19 35 5 -3 16 4 24 15 7 11 17 17 20 14 10 -10 47 39 42 54 -3
7 0 10 5 7 18 -11 11 79 -9 111 -31 51 -73 64 -208 63 -65 0 -130 -5 -146 -11z
m260 -34 c-3 -3 -12 -4 -19 -1 -8 3 -5 6 6 6 11 1 17 -2 13 -5z m47 -36 c-6
-9 -34 1 -34 12 0 5 6 10 13 13 13 4 28 -13 21 -25z m-77 0 c-9 -6 -8 -8 1 -8
7 0 20 -7 28 -15 18 -18 9 -84 -12 -92 -8 -3 -12 -8 -9 -12 2 -4 -34 -8 -79
-10 -95 -2 -94 -3 -92 79 1 48 4 55 25 60 35 8 151 6 138 -2z m-210 -40 c-3
-8 -6 -5 -6 6 -1 11 2 17 5 13 3 -3 4 -12 1 -19z m-30 -18 c-4 -15 1 -22 19
-26 14 -4 23 -8 21 -11 -3 -2 -16 -1 -30 2 -18 5 -24 13 -24 31 0 13 4 24 9
24 6 0 8 -9 5 -20z m23 -64 c0 -3 -4 -8 -10 -11 -5 -3 -10 -1 -10 4 0 6 5 11
10 11 6 0 10 -2 10 -4z m180 -56 c0 -11 -2 -20 -4 -20 -2 0 -6 9 -9 20 -3 11
-1 20 4 20 5 0 9 -9 9 -20z m55 10 c3 -5 -3 -10 -15 -10 -12 0 -18 5 -15 10 3
6 10 10 15 10 5 0 12 -4 15 -10z"/>
<path d="M1320 1199 c0 -7 -3 -9 -7 -6 -3 4 -12 2 -20 -5 -10 -8 -17 -8 -25 0
-15 15 -93 16 -119 2 -21 -12 -26 -55 -7 -66 6 -4 40 -7 74 -6 35 1 65 -2 68
-6 6 -10 28 -282 27 -337 0 -46 5 -57 36 -74 18 -9 26 -7 46 11 25 23 25 23
17 148 -5 69 -10 154 -12 190 l-4 65 40 19 c28 14 41 16 44 8 6 -19 47 -14 68
9 14 15 16 24 8 37 -9 14 -31 17 -123 20 -81 2 -111 -1 -111 -9z m70 -19 c-6
-11 -15 -18 -21 -14 -6 4 -6 11 2 20 17 21 31 17 19 -6z m-33 -86 c-3 -3 -12
-4 -19 -1 -8 3 -5 6 6 6 11 1 17 -2 13 -5z m-2 -34 c3 -5 -1 -10 -9 -10 -9 0
-16 5 -16 10 0 6 4 10 9 10 6 0 13 -4 16 -10z m25 -76 c0 -2 -9 0 -20 6 -11 6
-20 13 -20 16 0 2 9 0 20 -6 11 -6 20 -13 20 -16z m-30 -114 c0 -5 -2 -10 -4
-10 -3 0 -8 5 -11 10 -3 6 -1 10 4 10 6 0 11 -4 11 -10z m7 -56 c-3 -3 -12 -4
-19 -1 -8 3 -5 6 6 6 11 1 17 -2 13 -5z"/>
<path d="M777 1169 c-35 -20 -39 -56 -27 -224 19 -268 18 -265 46 -275 30 -12
304 7 322 22 16 13 15 30 -1 52 -12 16 -28 18 -129 17 l-115 -2 -7 32 c-3 17
-6 67 -6 110 0 43 -4 80 -9 83 -4 3 -6 37 -3 76 4 54 1 75 -12 95 -18 27 -31
30 -59 14z"/>
<path d="M606 1148 c-9 -12 -16 -28 -16 -35 0 -14 35 -27 50 -18 5 3 10 1 10
-5 0 -6 -14 -13 -30 -17 -29 -5 -30 -7 -23 -42 3 -20 6 -45 5 -56 0 -10 4 -26
11 -34 7 -8 7 -12 2 -9 -6 4 -11 -22 -11 -70 -2 -105 -3 -110 -36 -121 -35
-12 -37 -20 -3 -13 14 2 25 0 25 -5 0 -12 -119 -4 -150 10 -14 7 -30 23 -36
37 -15 31 -26 127 -24 202 1 51 -1 57 -17 52 -17 -5 -17 -5 0 9 37 31 2 117
-49 117 -24 0 -33 -11 -38 -47 -3 -21 42 -59 64 -55 12 3 12 1 3 -9 -10 -10
-16 -9 -31 4 -33 30 -38 20 -35 -75 5 -141 13 -198 27 -198 8 0 19 -7 26 -15
10 -12 10 -15 -4 -15 -23 0 -20 -17 9 -46 52 -52 129 -66 235 -43 68 15 106
48 125 112 15 50 21 188 9 200 -4 4 -7 36 -7 71 -1 36 -4 63 -9 60 -4 -3 -5 2
-2 10 5 12 -1 16 -25 16 -17 0 -31 -5 -31 -11 0 -5 -5 -7 -11 -3 -8 4 -7 9 2
16 11 7 11 11 1 15 -15 6 -6 23 14 23 8 0 14 -7 14 -15 0 -8 9 -15 20 -15 26
0 16 26 -13 34 -33 9 -35 8 -51 -16z m44 -102 c0 -2 -9 -6 -20 -9 -11 -3 -18
-1 -14 4 5 9 34 13 34 5z m-305 -76 c-3 -5 -18 -9 -33 -9 l-27 1 30 8 c17 4
31 8 33 9 2 0 0 -3 -3 -9z m-35 -70 c0 -5 -2 -10 -4 -10 -3 0 -8 5 -11 10 -3
6 -1 10 4 10 6 0 11 -4 11 -10z m80 -194 c0 -2 -11 -6 -25 -8 -13 -3 -22 -1
-19 3 5 9 44 13 44 5z m57 -12 c-3 -3 -12 -4 -19 -1 -8 3 -5 6 6 6 11 1 17 -2
13 -5z"/>
<path d="M4440 1050 c-8 -5 -29 -10 -45 -10 l-31 0 7 -76 c5 -45 13 -81 21
-86 7 -5 49 -7 93 -3 44 3 113 5 153 5 81 -1 122 16 122 50 0 37 -72 51 -165
31 -22 -5 -60 -6 -85 -2 l-44 6 3 48 c3 48 -2 54 -29 37z m-16 -65 c-6 -16
-24 -21 -24 -7 0 11 11 22 21 22 5 0 6 -7 3 -15z m56 -65 c0 -5 -2 -10 -4 -10
-3 0 -8 5 -11 10 -3 6 -1 10 4 10 6 0 11 -4 11 -10z"/>
<path d="M3080 970 c-8 -5 -29 -10 -45 -10 l-31 0 7 -76 c5 -45 13 -81 21 -86
7 -5 49 -7 93 -3 44 3 113 5 153 5 81 -1 122 16 122 50 0 37 -72 51 -165 31
-22 -5 -60 -6 -85 -2 l-44 6 3 48 c3 48 -2 54 -29 37z m-16 -65 c-6 -16 -24
-21 -24 -7 0 11 11 22 21 22 5 0 6 -7 3 -15z m56 -65 c0 -5 -2 -10 -4 -10 -3
0 -8 5 -11 10 -3 6 -1 10 4 10 6 0 11 -4 11 -10z"/>
<path d="M5685 901 c-27 -4 -55 -10 -62 -14 -6 -4 -14 -3 -18 2 -3 6 -27 8
-53 5 -26 -2 -155 -9 -287 -14 -132 -5 -255 -13 -273 -19 -19 -6 -30 -6 -27 0
8 11 26 12 -210 -7 -110 -9 -274 -17 -365 -19 -91 -2 -201 -8 -245 -13 -44 -6
-84 -8 -89 -5 -5 4 -6 1 -2 -6 4 -6 1 -14 -7 -17 -9 -3 -13 -13 -9 -27 5 -22
5 -22 -17 -3 -15 13 -18 23 -11 30 17 17 11 28 -13 22 -13 -3 -77 -8 -143 -11
-65 -3 -164 -10 -219 -15 -55 -5 -158 -13 -230 -16 -71 -3 -152 -10 -178 -14
-26 -4 -58 -5 -70 -3 -12 2 -42 0 -67 -6 -24 -5 -47 -6 -50 -2 -3 4 -66 4
-140 0 -561 -33 -707 -41 -790 -41 -52 0 -151 -6 -220 -13 -69 -7 -129 -11
-134 -7 -5 3 -6 0 -2 -7 4 -6 1 -14 -7 -17 -9 -3 -13 -13 -9 -27 5 -22 5 -22
-17 -3 -15 13 -18 23 -11 30 19 19 10 28 -22 20 -18 -4 -46 -6 -63 -5 -41 3
-248 -18 -285 -29 -20 -6 -28 -5 -24 2 4 7 -18 8 -67 4 -41 -3 -164 -10 -274
-16 -336 -17 -347 -19 -310 -57 21 -21 13 -26 -25 -18 -29 6 -30 8 -13 21 12
9 13 13 5 14 -7 0 -10 5 -7 11 5 7 -7 9 -36 5 -57 -7 -281 -20 -293 -17 -5 1
-27 -1 -48 -4 -36 -6 -38 -9 -38 -42 l0 -36 173 8 c115 4 182 11 201 21 34 17
47 18 26 3 -16 -11 -6 -11 435 16 132 9 305 18 385 21 80 3 172 10 205 15 33
5 122 11 199 14 314 10 421 16 424 25 2 6 8 10 13 10 6 0 8 -3 6 -7 -6 -9 39
-8 378 12 143 8 352 20 464 26 170 9 207 13 217 27 10 14 14 14 28 3 20 -16
59 -17 221 -3 72 6 186 14 255 18 69 3 128 8 132 10 7 5 304 17 343 15 11 -1
99 4 195 10 130 8 177 15 183 25 9 15 37 19 37 5 0 -15 58 -21 110 -11 28 5
133 12 233 15 100 3 220 8 267 11 46 3 116 7 155 9 236 12 331 18 336 20 3 2
3 20 1 39 -4 36 -5 36 -51 35 -25 -1 -68 -5 -96 -8z m-1245 -91 c0 -5 -2 -10
-4 -10 -3 0 -8 5 -11 10 -3 6 -1 10 4 10 6 0 11 -4 11 -10z m-350 -40 c0 -5
-5 -10 -11 -10 -5 0 -7 5 -4 10 3 6 8 10 11 10 2 0 4 -4 4 -10z m-1010 -40 c0
-5 -2 -10 -4 -10 -3 0 -8 5 -11 10 -3 6 -1 10 4 10 6 0 11 -4 11 -10z m580 0
c0 -5 -2 -10 -4 -10 -3 0 -8 5 -11 10 -3 6 -1 10 4 10 6 0 11 -4 11 -10z
m-1986 -95 c3 -8 1 -15 -4 -15 -6 0 -10 7 -10 15 0 8 2 15 4 15 2 0 6 -7 10
-15z m116 5 c0 -5 -5 -10 -11 -10 -5 0 -7 5 -4 10 3 6 8 10 11 10 2 0 4 -4 4
-10z"/>
</g>
</svg>
